#!OML:ASF \\sashay\E\basketball\basketball\Project 1\Capture day 1\Session 1\Subject.ASF
:FULLY-SPECIFIED
:DEGREES
449
root -0.825026 15.34 2.39647 180.029 -52.5876 -179.124
lowerback 21.7134 -0.218212 -5.10852
upperback 5.56421 -1.86461 1.89433
thorax -5.81527 -1.12163 5.49178
lowerneck 6.02637 -4.82552 -21.719
upperneck 8.46772 -9.95448 24.3845
head 3.71833 -5.48932 11.4114
rclavicle 7.43579e-014 2.8128e-014
rhumerus 53.8756 -4.22863 -68.2109
rradius 84.4333
rwrist -34.9744
rhand -14.4594 30.8918
rfingers 7.12502
rthumb 11.6861 1.2377
lclavicle 7.43579e-014 2.8128e-014
lhumerus 71.5677 -11.3024 57.4783
lradius 69.9609
lwrist 43.1785
lhand -18.4967 27.6249
lfingers 7.12502
lthumb 7.79098 57.4613
rfemur -36.0721 -17.0777 13.9846
rtibia 83.5563
rfoot -5.05904 -6.44028
rtoes -49.2159
lfemur -18.0852 20.8445 -26.405
ltibia 48.9139
lfoot -15.2362 -18.1337
ltoes 25.2919
450
root -0.85736 15.3629 2.21972 180.056 -55.0755 -179.221
lowerback 21.9707 -0.410675 -5.44455
upperback 5.42717 -2.17546 1.95594
thorax -6.04062 -1.24721 5.84847
lowerneck 6.5732 -5.10209 -21.6285
upperneck 8.37433 -10.5059 24.7979
head 3.7493 -5.7992 11.5363
rclavicle 1.01877e-014 7.95139e-015
rhumerus 54.5077 -4.00133 -67.9854
rradius 84.3018
rwrist -34.9174
rhand -14.0617 30.3012
rfingers 7.12502
rthumb 12.0696 0.669319
lclavicle 1.01877e-014 7.95139e-015
lhumerus 71.5624 -11.0324 58.1073
lradius 69.9671
lwrist 43.563
lhand -18.7768 27.5663
lfingers 7.12502
lthumb 7.52056 57.4126
rfemur -37.0884 -16.6069 14.0775
rtibia 81.5553
rfoot -5.26316 -6.21652
rtoes -48.7331
lfemur -17.5996 20.9622 -25.8541
ltibia 49.0695
lfoot -14.9775 -18.5505
ltoes 24.6342
451
root -0.889636 15.3894 2.03759 179.863 -57.542 -179.042
lowerback 22.0543 -0.532711 -5.39298
upperback 5.45288 -2.31977 1.89878
thorax -6.0405 -1.31375 5.79551
lowerneck 5.8325 -5.86271 -21.1093
upperneck 9.24105 -11.6601 24.9976
head 4.40538 -6.30825 11.4065
rclavicle -6.68413e-015 -2.48481e-015
rhumerus 54.9928 -4.28409 -68.0162
rradius 84.289
rwrist -34.8278
rhand -13.7204 30.1913
rfingers 7.12502
rthumb 12.3987 0.579043
lclavicle -6.68413e-015 -2.48481e-015
lhumerus 71.8452 -11.2264 58.5216
lradius 70.0961
lwrist 43.2787
lhand -19.1237 27.1897
lfingers 7.12502
lthumb 7.18578 57.0477
rfemur -37.8818 -16.0638 14.2435
rtibia 79.2806
rfoot -5.52211 -5.94538
rtoes -48.7288
lfemur -17.2177 21.1745 -25.0991
ltibia 49.2676
lfoot -14.4631 -19.0137
ltoes 25.4201
452
root -0.933219 15.4104 1.85119 179.698 -60.005 -178.887
lowerback 22.0049 -0.689606 -5.32142
upperback 5.48812 -2.49566 1.85359
thorax -5.95775 -1.39879 5.74496
lowerneck 7.16802 -5.81342 -21.0818
upperneck 8.24675 -11.7463 25.7979
head 3.94816 -6.44755 11.7524
rclavicle -3.85642e-014 3.56818e-014
rhumerus 55.2007 -4.53629 -67.9623
rradius 84.5193
rwrist -34.7021
rhand -13.6401 30.0625
rfingers 7.12502
rthumb 12.4762 0.454949
lclavicle -3.85642e-014 3.56818e-014
lhumerus 71.8005 -11.4537 59.1097
lradius 70.4392
lwrist 42.8306
lhand -19.1957 26.8429
lfingers 7.12502
lthumb 7.11623 56.7033
rfemur -38.4106 -15.6144 14.3006
rtibia 76.7313
rfoot -5.45425 -5.99339
rtoes -50.063
lfemur -16.7945 21.4204 -24.3792
ltibia 49.3983
lfoot -13.9071 -19.2767
ltoes 25.7731
453
root -0.982375 15.4131 1.66167 180.063 -62.524 -179.285
lowerback 21.8116 -0.842213 -5.41881
upperback 5.53018 -2.69842 1.72482
thorax -5.78621 -1.49773 5.69798
lowerneck 8.19442 -5.9591 -21.2072
upperneck 7.69769 -12.1773 26.7184
head 3.78542 -6.75044 12.1491
rclavicle -1.25731e-014 -1.2424e-014
rhumerus 55.1269 -4.79146 -67.7689
rradius 84.9755
rwrist -34.6705
rhand -13.6784 29.7634
rfingers 7.12502
rthumb 12.4392 0.153516
lclavicle -1.25731e-014 -1.2424e-014
lhumerus 71.6066 -11.8046 59.8108
lradius 71.0484
lwrist 42.6696
lhand -19.3956 27.0483
lfingers 7.12502
lthumb 6.9233 56.9151
rfemur -38.7448 -15.1591 13.8679
rtibia 74.003
rfoot -5.01177 -6.30199
rtoes -51.1152
lfemur -16.4266 21.7755 -23.9866
ltibia 49.6134
lfoot -14.0973 -19.1659
ltoes 21.7659
454
root -1.03792 15.4627 1.46764 180.469 -65.0648 -179.676
lowerback 21.5881 -0.902229 -5.70802
upperback 5.6306 -2.809 1.83874
thorax -5.52383 -1.55987 5.99941
lowerneck 8.80441 -6.39989 -21.6355
upperneck 7.29115 -12.9633 27.4752
head 3.8555 -7.20032 12.4909
rclavicle -1.36664e-014 3.27995e-015
rhumerus 55.1377 -4.95237 -67.2793
rradius 85.5275
rwrist -34.7848
rhand -13.6288 29.3274
rfingers 7.12502
rthumb 12.487 -0.279545
lclavicle -1.36664e-014 3.27995e-015
lhumerus 71.4034 -12.202 60.829
lradius 71.8616
lwrist 42.5945
lhand -20.0236 27.3765
lfingers 7.12502
lthumb 6.31702 57.2623
rfemur -39.2885 -14.1982 13.0829
rtibia 70.979
rfoot -5.38195 -5.20173
rtoes -47.7221
lfemur -16.0124 22.1461 -23.543
ltibia 49.6912
lfoot -14.1579 -18.9717
ltoes 16.9441
